<svg width="184" height="54" xmlns="http://www.w3.org/2000/svg" fill="none">
 <defs>
  <linearGradient y2="0" x2="0.54297" y1="1" x1="0.54688" id="svg_13">
   <stop offset="0" stop-color="#9356dc"/>
   <stop offset="1" stop-opacity="0.99609" stop-color="#ff79da"/>
  </linearGradient>
 </defs>
 <g>
  <title>Layer 1</title>
  <path id="svg_1" fill="url(#svg_13)" d="m61.42842,20.24986c3.20792,0 5.56669,0.63769 7.0763,1.9131c1.5332,1.2754 2.2998,2.94502 2.2998,5.00885c0,0.69567 -0.09435,1.47251 -0.28305,2.33051c-0.44817,1.90151 -1.28553,3.57112 -2.51209,5.00885c-1.22656,1.41454 -2.73617,2.51602 -4.52883,3.30445c-1.76907,0.76524 -3.69147,1.14786 -5.76718,1.14786c-3.27869,0 -5.70822,-0.6377 -7.2886,-1.9131c-1.55679,-1.29859 -2.33519,-3.01458 -2.33519,-5.14798c0,-0.71886 0.09436,-1.51889 0.28306,-2.40007c0.44817,-1.80875 1.29732,-3.4088 2.54747,-4.80015c1.27373,-1.41454 2.81873,-2.50442 4.63497,-3.26966c1.83984,-0.78843 3.79762,-1.18264 5.87334,-1.18264zm-0.10614,3.09575c-0.49534,0 -1.02606,0.44059 -1.59217,1.32178c-0.54252,0.858 -1.19118,2.49283 -1.94598,4.9045c-0.75481,2.41167 -1.13222,4.10447 -1.13222,5.07842c0,0.51016 0.08256,0.858 0.24767,1.04351c0.16511,0.16232 0.3892,0.24349 0.67226,0.24349c0.49534,0.04638 1.00248,-0.37103 1.5214,-1.25221c0.54252,-0.88119 1.21476,-2.59718 2.01674,-5.14798c0.73122,-2.24934 1.09683,-3.88418 1.09683,-4.9045c0,-0.48697 -0.08256,-0.82321 -0.24767,-1.00873c-0.14153,-0.18551 -0.35381,-0.27827 -0.63687,-0.27827z"/>
  <path id="svg_3" fill="url(#svg_13)" d="m108.71231,33.85027c-0.04718,0.09276 -0.07076,0.23189 -0.07076,0.4174c0,0.16232 0.03538,0.28986 0.10614,0.38262c0.09435,0.09276 0.21229,0.13913 0.35381,0.13913c0.28305,0 0.51893,-0.11595 0.70763,-0.34784c0.21229,-0.25508 0.35381,-0.38262 0.42458,-0.38262c0.11794,0 0.21229,0.08116 0.28305,0.24349c0.07076,0.13913 0.10614,0.31305 0.10614,0.52176c0.02359,0.67248 -0.2005,1.33337 -0.67225,1.98267c-0.47175,0.62611 -1.16759,1.14786 -2.08751,1.56527c-0.89633,0.39421 -1.98136,0.59132 -3.2551,0.59132c-1.55679,0 -2.79514,-0.34784 -3.71506,-1.04351c-0.91992,-0.71886 -1.39167,-1.66962 -1.41526,-2.85226c0,-0.858 0.21229,-1.82035 0.63687,-2.88704l1.94598,-5.00885c0.11794,-0.30146 0.17691,-0.54494 0.17691,-0.73046c0,-0.30146 -0.10614,-0.53335 -0.31843,-0.69567c-0.1887,-0.18551 -0.42458,-0.27827 -0.70763,-0.27827c-0.40099,0 -0.81377,0.17392 -1.23835,0.52176c-0.42458,0.34784 -0.80198,0.89278 -1.13221,1.63483l-1.94598,6.22628c-0.04718,0.09276 -0.07076,0.23189 -0.07076,0.4174c0,0.16232 0.03538,0.28986 0.10614,0.38262c0.09435,0.09276 0.21229,0.13913 0.35381,0.13913c0.28305,0 0.51893,-0.11595 0.70763,-0.34784c0.21229,-0.25508 0.35381,-0.38262 0.42458,-0.38262c0.11794,0 0.21229,0.08116 0.28305,0.24349c0.07076,0.13913 0.10614,0.31305 0.10614,0.52176c0.02359,0.67248 -0.2005,1.33337 -0.67225,1.98267c-0.47175,0.62611 -1.16759,1.14786 -2.08751,1.56527c-0.89633,0.39421 -1.98136,0.59132 -3.2551,0.59132c-1.55679,0 -2.79514,-0.34784 -3.71506,-1.04351c-0.91992,-0.71886 -1.39167,-1.66962 -1.41526,-2.85226c0,-0.858 0.21229,-1.82035 0.63687,-2.88704l1.94598,-5.00885c0.11794,-0.30146 0.17691,-0.54494 0.17691,-0.73046c0,-0.30146 -0.10614,-0.53335 -0.31843,-0.69567c-0.1887,-0.18551 -0.42458,-0.27827 -0.70763,-0.27827c-0.40099,0 -0.81377,0.17392 -1.23835,0.52176c-0.42458,0.32465 -0.77839,0.858 -1.06144,1.60005l-2.33518,7.4437c-0.09435,0.25508 -0.14153,0.49857 -0.14153,0.73046c0,0.27827 0.05897,0.51016 0.17691,0.69567c0.11794,0.16232 0.28305,0.33624 0.49534,0.52176c0.16511,0.13913 0.28305,0.26667 0.35381,0.38262c0.07076,0.11595 0.08256,0.25508 0.03538,0.4174c-0.09435,0.30146 -0.31843,0.52176 -0.67225,0.66089c-0.35381,0.13913 -0.90812,0.2087 -1.66293,0.2087l-8.06698,0c-0.61328,0 -1.04965,-0.09276 -1.30912,-0.27827c-0.28305,-0.2087 -0.3892,-0.47538 -0.31843,-0.80002c0.09435,-0.27827 0.34202,-0.52176 0.74301,-0.73046c0.35381,-0.18551 0.64866,-0.40581 0.88454,-0.66089c0.23588,-0.25508 0.43637,-0.66089 0.60149,-1.21743l3.14895,-10.05248c0.04718,-0.11595 0.07076,-0.27827 0.07076,-0.48697c0,-0.25508 -0.05897,-0.45219 -0.17691,-0.59132c-0.09435,-0.13913 -0.25946,-0.31305 -0.49534,-0.52176c-0.23588,-0.18551 -0.40099,-0.34784 -0.49534,-0.48697c-0.09435,-0.13913 -0.10614,-0.32465 -0.03538,-0.55654c0.14153,-0.53335 0.88454,-0.99713 2.22903,-1.39135c1.3445,-0.4174 2.74796,-0.62611 4.2104,-0.62611c1.1558,0 2.06392,0.31305 2.72437,0.93916c0.68404,0.62611 1.01427,1.4841 0.99068,2.57399c0.96709,-1.32178 1.98136,-2.23775 3.04281,-2.74791c1.08503,-0.51016 2.25262,-0.76524 3.50277,-0.76524c1.36808,0 2.4767,0.39421 3.32586,1.18264c0.87274,0.76524 1.35629,1.77397 1.45064,3.02618c1.01427,-1.57686 2.0993,-2.66675 3.2551,-3.26966c1.1558,-0.62611 2.41774,-0.93916 3.78582,-0.93916c1.43885,0 2.59464,0.429 3.46739,1.287c0.89633,0.858 1.3445,1.97107 1.3445,3.33923c0,0.71886 -0.11794,1.42613 -0.35381,2.1218l-2.15827,6.85238z"/>
  <path id="svg_5" fill="url(#svg_13)" d="m130.5015,13.25834c2.52388,0 4.41089,0.38262 5.66104,1.14786c1.27373,0.74205 1.9106,1.65802 1.9106,2.74791c0,0.88119 -0.3774,1.56527 -1.13221,2.05224c-0.73122,0.46378 -1.69831,0.69567 -2.90128,0.69567c-1.10862,0 -1.96957,-0.26667 -2.58285,-0.80002c-0.61328,-0.53335 -0.91992,-1.19424 -0.91992,-1.98267c0,-0.48697 0.15332,-0.99713 0.45996,-1.53048c-0.70763,0 -1.29732,0.17392 -1.76907,0.52176c-0.47175,0.32465 -0.83736,0.89278 -1.09683,1.7044c-0.14153,0.51016 -0.21229,0.98554 -0.21229,1.42613c0,0.55654 0.09435,0.99713 0.28305,1.32178c0.21229,0.30146 0.50713,0.45219 0.88454,0.45219l2.08751,0c1.22656,0 1.83984,0.37103 1.83984,1.11308c0,0.09276 -0.02359,0.23189 -0.07076,0.4174c-0.14153,0.51016 -0.43637,0.89278 -0.88454,1.14786c-0.42458,0.25508 -1.07324,0.38262 -1.94598,0.38262l-1.06144,0l-3.50277,11.26991c-0.07076,0.27827 -0.10614,0.52176 -0.10614,0.73046c0,0.30146 0.05897,0.54494 0.17691,0.73046c0.11794,0.16232 0.28305,0.32465 0.49534,0.48697c0.16511,0.16232 0.28305,0.30146 0.35381,0.4174c0.07076,0.09276 0.08256,0.2203 0.03538,0.38262c-0.11794,0.30146 -0.35381,0.52176 -0.70763,0.66089c-0.35381,0.13913 -0.89633,0.2087 -1.62755,0.2087l-8.06698,0c-0.61328,0 -1.06144,-0.09276 -1.3445,-0.27827c-0.28305,-0.2087 -0.3774,-0.47538 -0.28305,-0.80002c0.09435,-0.27827 0.34202,-0.52176 0.74301,-0.73046c0.35381,-0.18551 0.64866,-0.40581 0.88454,-0.66089c0.23588,-0.25508 0.43637,-0.66089 0.60149,-1.21743l2.75976,-8.90462c0.11794,-0.34784 0.17691,-0.70727 0.17691,-1.07829c0,-0.46378 -0.10614,-0.82321 -0.31843,-1.07829c-0.1887,-0.27827 -0.48355,-0.57973 -0.88454,-0.90438c-0.25946,-0.2087 -0.45996,-0.38262 -0.60149,-0.52176c-0.11794,-0.16232 -0.17691,-0.34784 -0.17691,-0.55654c-0.02359,-0.44059 0.12973,-0.75365 0.45996,-0.93916c0.35381,-0.18551 1.01427,-0.27827 1.98136,-0.27827l0.88454,0c-0.16511,-0.57973 -0.24767,-1.15946 -0.24767,-1.73918c0,-0.57973 0.10614,-1.18264 0.31843,-1.80875c0.44817,-1.18264 1.40347,-2.17978 2.8659,-2.99141c1.48602,-0.81161 3.67967,-1.21742 6.58096,-1.21742z"/>
 </g>
</svg>